<?xml version="1.0" standalone="no"?>
<!DOCTYPE svg PUBLIC "-//W3C//DTD SVG 20010904//EN"
 "http://www.w3.org/TR/2001/REC-SVG-20010904/DTD/svg10.dtd">
<svg version="1.0" xmlns="http://www.w3.org/2000/svg"
 width="700.000000pt" height="700.000000pt" viewBox="0 0 700.000000 700.000000"
 preserveAspectRatio="xMidYMid meet">
<metadata>
Created by potrace 1.14, written by Peter Selinger 2001-2017
</metadata>
<g transform="translate(0.000000,700.000000) scale(0.100000,-0.100000)"
fill="#000000" stroke="none">
<path d="M2490 6690 c-7 -19 -18 -48 -26 -65 -7 -16 -101 -253 -208 -525 -313
-794 -546 -1383 -556 -1405 -5 -11 -25 -63 -45 -115 -21 -52 -84 -212 -140
-355 -57 -143 -155 -393 -219 -555 -64 -162 -120 -304 -125 -315 -5 -11 -21
-49 -35 -85 -13 -36 -86 -220 -161 -410 -75 -190 -165 -417 -200 -505 -35 -88
-110 -279 -168 -425 -57 -146 -155 -393 -217 -550 -61 -157 -115 -294 -120
-305 -17 -38 -190 -475 -190 -480 0 -3 65 -5 143 -5 l144 0 60 152 c349 888
696 1767 703 1783 9 19 237 595 315 795 20 52 106 268 190 480 280 709 377
954 450 1140 40 102 164 415 275 695 111 281 220 556 242 613 22 56 43 102 47
102 3 0 44 -96 90 -213 46 -116 129 -329 186 -472 103 -261 214 -539 350 -885
40 -102 154 -390 253 -640 99 -250 201 -509 227 -575 26 -66 108 -273 182
-460 74 -187 159 -401 188 -475 29 -74 105 -265 168 -425 63 -159 161 -407
217 -550 56 -143 106 -269 111 -280 5 -11 75 -186 155 -390 80 -203 148 -376
151 -382 4 -10 42 -13 144 -13 76 0 139 3 139 8 0 7 -53 146 -71 187 -7 17
-473 1197 -719 1820 -43 110 -143 364 -223 565 -79 201 -203 516 -276 700 -72
184 -136 344 -141 355 -16 37 -200 506 -200 511 0 3 -7 20 -15 37 -8 18 -62
154 -120 302 -177 449 -197 499 -206 520 -4 11 -31 79 -59 150 -28 72 -58 144
-66 162 -7 17 -14 33 -14 36 0 3 -65 169 -144 369 -79 200 -147 373 -150 386
-4 12 -10 23 -14 23 -4 1 -71 2 -148 3 l-142 1 -12 -35z"/>
<path d="M3087 6700 c3 -14 9 -29 13 -35 4 -5 17 -35 28 -65 26 -72 420 -1069
432 -1095 5 -11 41 -103 80 -205 39 -102 75 -194 80 -205 5 -11 23 -56 40
-100 17 -44 35 -89 40 -100 5 -11 38 -94 74 -185 67 -174 163 -416 301 -765
86 -216 256 -648 459 -1165 64 -162 121 -304 126 -315 5 -11 59 -148 120 -305
61 -157 117 -298 124 -315 8 -16 86 -214 174 -440 89 -225 197 -500 241 -610
l79 -200 141 -3 c158 -3 154 -5 122 69 -10 24 -37 94 -61 154 -23 61 -48 124
-55 140 -7 17 -86 215 -175 440 -88 226 -165 419 -170 430 -5 11 -50 126 -100
255 -50 129 -96 244 -101 255 -5 11 -41 101 -80 200 -226 575 -313 795 -330
832 -10 24 -19 45 -19 47 0 3 -52 137 -116 298 -64 161 -149 376 -189 478 -40
102 -130 329 -200 505 -69 176 -142 361 -161 410 -20 50 -39 99 -44 110 -5 11
-77 193 -161 405 -83 212 -157 399 -164 415 -7 17 -70 176 -140 355 -71 179
-130 327 -132 330 -2 2 -67 5 -143 5 l-139 0 6 -25z"/>
<path d="M3660 6714 c0 -7 75 -201 166 -431 91 -230 224 -566 296 -748 71
-181 134 -339 139 -350 4 -11 55 -139 113 -285 98 -250 156 -396 391 -990 53
-135 135 -342 182 -460 98 -250 141 -357 153 -385 5 -11 76 -191 158 -400 243
-615 364 -922 558 -1413 101 -255 184 -465 184 -468 0 -3 9 -25 20 -49 11 -24
28 -65 38 -92 l18 -48 142 -3 c78 -1 142 -1 142 2 0 2 -36 95 -81 207 -78 199
-110 279 -191 484 -21 55 -43 109 -48 120 -5 11 -25 63 -45 115 -21 52 -93
237 -162 410 -69 173 -141 356 -160 405 -19 50 -40 101 -46 115 -6 14 -11 27
-12 30 -1 3 -5 14 -10 25 -9 23 -223 564 -386 980 -61 154 -114 289 -118 300
-5 11 -13 31 -19 45 -6 14 -34 84 -62 155 -28 72 -58 144 -66 162 -7 17 -14
33 -14 36 0 3 -70 182 -156 399 -85 216 -196 497 -246 623 -49 127 -96 244
-103 260 -7 17 -38 93 -68 170 -66 169 -322 815 -386 975 l-46 115 -137 0
c-100 0 -138 -3 -138 -11z"/>
<path d="M4230 6720 c0 -5 64 -168 280 -715 189 -479 291 -739 345 -875 29
-74 100 -254 158 -400 149 -377 861 -2181 1042 -2640 21 -52 42 -106 47 -120
6 -14 130 -329 277 -700 l267 -675 137 -2 c75 -1 139 2 142 7 3 4 -35 108 -84
231 -198 501 -339 860 -453 1149 -66 168 -126 319 -134 336 -7 17 -29 71 -48
120 -19 49 -87 222 -151 384 -131 330 -207 524 -397 1005 -71 182 -133 339
-137 350 -5 11 -13 31 -20 45 -12 27 -289 728 -423 1070 -44 113 -86 219 -93
235 -7 17 -58 145 -113 285 -134 339 -277 700 -287 725 -5 11 -9 22 -9 25 -7
28 -62 153 -70 158 -13 8 -276 10 -276 2z"/>
<path d="M2570 5452 c-57 -147 -107 -274 -111 -282 -5 -8 -45 -109 -90 -225
-131 -338 -328 -836 -348 -885 -19 -42 -60 -149 -146 -370 -20 -52 -42 -108
-50 -125 -7 -16 -65 -165 -129 -330 -65 -165 -122 -309 -127 -320 -5 -11 -73
-184 -152 -385 -79 -201 -186 -471 -237 -600 -51 -129 -129 -325 -172 -435
-216 -547 -264 -668 -300 -760 -22 -55 -42 -110 -45 -123 l-5 -22 139 0 138 0
57 143 c31 78 123 309 203 512 80 204 195 495 255 647 61 152 139 351 175 442
36 91 125 318 199 503 147 372 221 559 301 763 29 74 110 278 179 453 69 175
126 321 126 324 0 3 7 19 14 36 8 18 42 102 76 187 33 85 65 164 70 175 5 11
61 154 126 318 l117 299 -74 164 c-40 90 -75 164 -78 164 -3 0 -53 -121 -111
-268z"/>
<path d="M2636 4163 c-187 -472 -398 -1009 -471 -1193 -73 -184 -167 -423
-210 -530 -105 -267 -256 -649 -390 -990 -230 -579 -322 -816 -329 -837 l-7
-22 144 1 143 1 107 271 c58 149 192 489 297 756 106 267 202 512 215 545 29
79 224 574 236 600 5 11 56 142 115 290 347 882 547 1390 594 1508 l39 98 -66
172 c-36 95 -69 175 -72 180 -4 4 -159 -379 -345 -850z"/>
<path d="M3233 4233 c-12 -32 -99 -254 -193 -493 -94 -239 -196 -496 -225
-570 -47 -121 -904 -2296 -977 -2480 -16 -41 -32 -80 -34 -86 -4 -8 36 -11
138 -10 l143 1 98 245 c53 135 106 268 116 295 21 56 137 349 150 380 5 11 16
40 26 65 9 25 23 59 30 75 7 17 40 100 73 185 33 85 122 310 197 500 186 469
293 741 430 1090 64 162 120 304 125 315 5 11 23 55 40 98 l30 77 -66 178
c-37 97 -69 180 -73 185 -4 4 -17 -19 -28 -50z"/>
<path d="M3005 2534 c-27 -70 -51 -130 -53 -134 -1 -4 249 -7 558 -8 308 0
560 3 560 7 0 3 -23 63 -52 133 l-52 128 -455 0 -456 0 -50 -126z"/>
<path d="M2822 2071 c-12 -31 -27 -69 -33 -86 -7 -16 -13 -32 -14 -35 -4 -11
-17 -46 -26 -67 l-9 -23 774 0 774 0 -57 133 -57 132 -665 1 -666 0 -21 -55z"/>
<path d="M2655 1592 c-16 -2 -31 -29 -68 -126 -26 -67 -47 -127 -47 -132 0 -9
1950 -14 1950 -4 1 18 -105 260 -114 261 -42 2 -1705 3 -1721 1z"/>
</g>
</svg>
